<svg id="x" xmlns="http://www.w3.org/2000/svg" preserveAspectRatio="xMinYMin meet" viewBox="0 0 30 30"><!--<path fill="#638596" d="M0 0h30v30H0z"/>--><path fill="#FFC2C2" d="M22 10v12h-2v2h-1v1H5v-1h1v-1h1v-1h1v-1h1v-1h2v-1h2v-9h1V9h2V8h-1V7h3v1h1v1h2v1h1z"/><path fill="#000" d="M4 24v2h16v-2h-1v1H5v-1H4zM6 23H5v1h1v-1zM7 22H6v1h1v-1zM8 21H7v1h1v-1zM9 20H8v1h1v-1zM11 19H9v1h2v-1zM12 10v8h-1v1h2v-9h-1zM14 10V9h-1v1h1zM15 8V7h-1v2h2V8h-1zM18 6h-3v1h3V6zM19 7h-1v1h1V7zM21 8h-2v1h2V8zM23 22V9h-2v1h1v12h1zM21 24v-1h1v-1h-2v2h1zM15 13h1v1h-1v-1zM20 13h1v1h-1v-1zM18 15h2v1h-2v-1zM17 18h3v1h-3v-1z"/><path fill="#000" fill-opacity=".2" d="M17 13h-1v1h1v-1zM22 13h-1v1h1v-1z"/><path fill="#000" fill-opacity=".4" d="M17 12h-2v1h2v-1zM20 12v1h2v-1h-2zM22 21h-9v1h1v1h6v-1h2v-1zM12 19h-1v6h2v-1h-1v-5zM10 25v-5H9v5h1zM8 25v-3H7v3h1zM6 24H5v1h1v-1z"/><style>#x{shape-rendering: crispedges;}</style></svg>