<svg width="12" height="11" viewBox="0 0 12 11" fill="none" xmlns="http://www.w3.org/2000/svg">
<path d="M1.10401 3.82C1.56001 3.616 2.59201 3.112 3.63601 2.584L3.72001 2.752C3.25201 3.076 2.32801 3.796 1.40401 4.444L1.10401 3.82ZM1.80001 1.204L1.96801 1.3V3.88L1.36801 4.084L1.62001 3.844C1.72801 4.288 1.47601 4.576 1.30801 4.648L0.924007 3.844C1.22401 3.688 1.27201 3.628 1.27201 3.448V1.204H1.80001ZM2.31601 0.819999C2.29201 0.963999 2.19601 1.06 1.96801 1.096V1.612H1.27201V0.699999L2.31601 0.819999ZM6.57601 0.855999L6.96001 0.435998L7.78801 1.108C7.71601 1.192 7.57201 1.252 7.34401 1.276C7.22401 3.004 7.08001 3.832 6.70801 4.168C6.51601 4.324 6.27601 4.396 6.02401 4.408C6.02401 4.264 5.96401 4.084 5.85601 3.988C5.74801 3.904 5.49601 3.82 5.25601 3.784V3.58C5.49601 3.604 5.91601 3.628 6.07201 3.628C6.18001 3.628 6.21601 3.604 6.26401 3.556C6.44401 3.352 6.60001 2.536 6.69601 0.855999H6.57601ZM4.26001 0.747999C4.18801 0.807999 4.06801 0.807999 3.91201 0.747999C3.40801 0.903999 2.44801 1.144 1.63201 1.24L1.58401 1.084C2.23201 0.807999 3.09601 0.303999 3.49201 0.0159988L4.26001 0.747999ZM6.80401 8.08C6.75601 8.2 6.60001 8.296 6.34801 8.284C6.07201 8.716 5.62801 9.28 5.19601 9.724H4.94401C5.22001 9.172 5.55601 8.332 5.74801 7.72L6.80401 8.08ZM5.78401 0.879998C5.72401 1.84 5.53201 2.968 4.35601 3.76L4.17601 3.58C4.98001 2.728 5.05201 1.72 5.07601 0.879998H5.78401ZM0.900007 9.952C2.04001 9.892 4.69201 9.604 7.48801 9.304L7.51201 9.508C6.10801 9.82 4.21201 10.228 1.60801 10.708C1.53601 10.852 1.41601 10.936 1.30801 10.96L0.900007 9.952ZM4.32001 4.084C3.49201 4.984 2.11201 6.076 0.552007 6.664L0.432007 6.508C1.74001 5.776 2.96401 4.54 3.56401 3.604L4.82401 3.88C4.78801 4.012 4.64401 4.084 4.32001 4.084ZM11.316 0.195999C11.28 0.363999 11.16 0.471999 10.872 0.507999V9.82C10.872 10.456 10.752 10.852 9.69601 10.948C9.67201 10.72 9.61201 10.516 9.44401 10.384C9.27601 10.252 8.98801 10.156 8.49601 10.096V9.904C8.49601 9.904 9.63601 9.988 9.85201 9.988C10.068 9.988 10.128 9.928 10.128 9.748V0.0519981L11.316 0.195999ZM9.36001 1.24C9.32401 1.408 9.22801 1.516 8.92801 1.552V8.08C8.92801 8.188 8.62801 8.356 8.35201 8.356H8.20801V1.108L9.36001 1.24ZM4.42801 5.8V9.832L3.70801 9.952V5.8H4.42801ZM7.20001 0.843999V1.204H4.27201L4.16401 0.843999H7.20001ZM2.62801 1.552C4.81201 2.488 4.18801 3.952 3.50401 3.412C3.42001 2.812 2.92801 2.08 2.49601 1.636L2.62801 1.552ZM4.14001 4.036C7.98001 4.696 7.54801 6.58 6.74401 6.208C6.34801 5.488 5.26801 4.612 3.92401 4.084L4.14001 4.036ZM1.81201 7.792C3.76801 8.692 3.07201 10.06 2.43601 9.496C2.38801 8.956 2.01601 8.272 1.66801 7.864L1.81201 7.792ZM6.24001 6.628C6.24001 6.628 6.78001 7.036 7.11601 7.36C7.08001 7.492 6.97201 7.552 6.81601 7.552H1.18801L1.09201 7.192H5.77201L6.24001 6.628ZM5.37601 5.164C5.37601 5.164 5.85601 5.512 6.16801 5.812C6.14401 5.944 6.02401 6.004 5.86801 6.004H2.28001L2.18401 5.656H4.94401L5.37601 5.164Z" fill="black"/>
</svg>
