<svg width="24" height="24" viewBox="0 0 24 24" fill="none" xmlns="http://www.w3.org/2000/svg">
<path fill-rule="evenodd" clip-rule="evenodd" d="M2 0C0.895431 0 0 0.89543 0 2V22C0 23.1046 0.89543 24 2 24H22C23.1046 24 24 23.1046 24 22V2C24 0.895431 23.1046 0 22 0H2ZM2 3.16802C2 2.61573 2.44772 2.16802 3 2.16802H6.5C7.05228 2.16802 7.5 2.61573 7.5 3.16802V6.70081C7.5 7.2531 7.05228 7.70081 6.5 7.70081H3C2.44772 7.70081 2 7.2531 2 6.70081V3.16802ZM4 4.16802V5.70081H5.5V4.16802H4ZM8.5 3.16802C8.5 2.61573 8.94772 2.16802 9.5 2.16802H13C13.5523 2.16802 14 2.61573 14 3.16802V6.70081C14 7.2531 13.5523 7.70081 13 7.70081H9.5C8.94772 7.70081 8.5 7.2531 8.5 6.70081V3.16802ZM10.5 4.16802V5.70081H12V4.16802H10.5ZM13 18.1217C13.5523 18.1217 14 17.674 14 17.1217C14 16.5694 13.5523 16.1217 13 16.1217H9V14.7663V14.7663H13C13.5523 14.7663 14 14.3186 14 13.7663C14 13.214 13.5523 12.7663 13 12.7663H4V11.2335H13C13.5523 11.2335 14 10.7858 14 10.2335C14 9.68124 13.5523 9.23352 13 9.23352H3C2.44772 9.23352 2 9.68124 2 10.2335V13.7663C2 14.3186 2.44772 14.7663 3 14.7663H7V14.7663V16.1217H3C2.44771 16.1217 2 16.5694 2 17.1217C2 17.674 2.44771 18.1217 3 18.1217H7V19.6544H3C2.44771 19.6544 2 20.1021 2 20.6544C2 21.2067 2.44771 21.6544 3 21.6544H13C13.5523 21.6544 14 21.2067 14 20.6544C14 20.1021 13.5523 19.6544 13 19.6544H9V18.1217H13ZM17 2.16802C16.4477 2.16802 16 2.61573 16 3.16802V7.87844V20.832C16 21.3843 16.4477 21.832 17 21.832C17.5523 21.832 18 21.3843 18 20.832V8.87844H20V20.832C20 21.3843 20.4477 21.832 21 21.832C21.5523 21.832 22 21.3843 22 20.832V7.87844C22 7.32616 21.5523 6.87844 21 6.87844H18V4.16802H21C21.5523 4.16802 22 3.7203 22 3.16802C22 2.61573 21.5523 2.16802 21 2.16802H17Z" fill="white"/>
</svg>
